# xmcd
#
# Track frame offsets:
#	150
#	16577
#	34270
#	51470
#	65887
#	84897
#	105435
#	121552
#	138172
#	154570
#	172240
#	189422
#	203820
#	222847
#	243370
#	259500
#	287535
#
# Disc length: 3846 seconds
#
# Revision: 1
# Processed by: cddbd v1.5.2PL0 Copyright (c) Steve Scherf et al.
# Submitted via: audiograbber 1.83.01
#
DISCID=e10f0411
DTITLE=Dixie Chicks - SC2216
DYEAR=1900
DGENRE=KARAOKE
TTITLE0=There's Your Trouble
TTITLE1=Wide Open Spaces
TTITLE2=You Were Mine
TTITLE3=Let 'Er Rip
TTITLE4=Ready To Run
TTITLE5=Good-bye Earl
TTITLE6=I Can Love You Better
TTITLE7=Tonight The Heartache's On Me
TTITLE8=There's Your Trouble - Vocal
TTITLE9=Wide Open Spaces - Vocal
TTITLE10=You Were Mine - Vocal
TTITLE11=Let 'Er Rip - Vocal
TTITLE12=Ready To Run - Vocal
TTITLE13=Good-bye Earl - Vocal
TTITLE14=I Can Love You Better - Vocal
TTITLE15=Tonight The Heartache's On Me - Vocal
TTITLE16=Data Track
EXTD=
EXTT0=
EXTT1=
EXTT2=
EXTT3=
EXTT4=
EXTT5=
EXTT6=
EXTT7=
EXTT8=
EXTT9=
EXTT10=
EXTT11=
EXTT12=
EXTT13=
EXTT14=
EXTT15=
EXTT16=
PLAYORDER=
